<mxfile host="app.diagrams.net" modified="2020-04-03T20:28:18.486Z" agent="5.0 (X11)" etag="ZiHKZ3QsFLlAF8_vLSCH" version="12.9.6" type="github" pages="3">
  <diagram id="C5RBs43oDa-KdzZeNtuy" name="Page-1">
    <mxGraphModel dx="1422" dy="745" grid="1" gridSize="10" guides="1" tooltips="1" connect="1" arrows="1" fold="1" page="1" pageScale="1" pageWidth="827" pageHeight="1169" math="0" shadow="0">
      <root>
        <mxCell id="WIyWlLk6GJQsqaUBKTNV-0" />
        <mxCell id="WIyWlLk6GJQsqaUBKTNV-1" parent="WIyWlLk6GJQsqaUBKTNV-0" />
        <mxCell id="WIyWlLk6GJQsqaUBKTNV-2" value="" style="rounded=0;html=1;jettySize=auto;orthogonalLoop=1;fontSize=11;endArrow=block;endFill=0;endSize=8;strokeWidth=1;shadow=0;labelBackgroundColor=none;edgeStyle=orthogonalEdgeStyle;entryX=0.5;entryY=0;entryDx=0;entryDy=0;fillColor=#d5e8d4;strokeColor=#82b366;" parent="WIyWlLk6GJQsqaUBKTNV-1" source="WIyWlLk6GJQsqaUBKTNV-3" target="K-eEDzcOtVVNnCKui8ZM-0" edge="1">
          <mxGeometry relative="1" as="geometry">
            <mxPoint x="220" y="170" as="targetPoint" />
          </mxGeometry>
        </mxCell>
        <mxCell id="WIyWlLk6GJQsqaUBKTNV-3" value="&lt;font face=&quot;Tahoma&quot;&gt;Inicio&lt;/font&gt;" style="rounded=1;whiteSpace=wrap;html=1;fontSize=12;glass=0;strokeWidth=1;shadow=0;fillColor=#d5e8d4;strokeColor=#82b366;" parent="WIyWlLk6GJQsqaUBKTNV-1" vertex="1">
          <mxGeometry x="160" y="80" width="120" height="40" as="geometry" />
        </mxCell>
        <mxCell id="K-eEDzcOtVVNnCKui8ZM-2" style="edgeStyle=orthogonalEdgeStyle;rounded=0;orthogonalLoop=1;jettySize=auto;html=1;entryX=0.5;entryY=0;entryDx=0;entryDy=0;endArrow=block;endFill=0;fillColor=#d5e8d4;strokeColor=#82b366;endSize=8;" parent="WIyWlLk6GJQsqaUBKTNV-1" source="K-eEDzcOtVVNnCKui8ZM-0" target="K-eEDzcOtVVNnCKui8ZM-1" edge="1">
          <mxGeometry relative="1" as="geometry" />
        </mxCell>
        <mxCell id="K-eEDzcOtVVNnCKui8ZM-0" value="&lt;font face=&quot;Tahoma&quot;&gt;Leer &lt;font color=&quot;#3333FF&quot;&gt;int&lt;/font&gt; num1&lt;/font&gt;" style="shape=parallelogram;perimeter=parallelogramPerimeter;whiteSpace=wrap;html=1;fillColor=#d5e8d4;strokeColor=#82b366;" parent="WIyWlLk6GJQsqaUBKTNV-1" vertex="1">
          <mxGeometry x="160" y="160" width="120" height="40" as="geometry" />
        </mxCell>
        <mxCell id="K-eEDzcOtVVNnCKui8ZM-4" value="&lt;font face=&quot;Tahoma&quot;&gt;verdadero&lt;/font&gt;" style="edgeStyle=orthogonalEdgeStyle;rounded=0;orthogonalLoop=1;jettySize=auto;html=1;entryX=0;entryY=0.5;entryDx=0;entryDy=0;endArrow=block;endFill=0;endSize=8;strokeColor=#82b366;fillColor=#d5e8d4;" parent="WIyWlLk6GJQsqaUBKTNV-1" source="K-eEDzcOtVVNnCKui8ZM-1" target="K-eEDzcOtVVNnCKui8ZM-3" edge="1">
          <mxGeometry relative="1" as="geometry" />
        </mxCell>
        <mxCell id="K-eEDzcOtVVNnCKui8ZM-6" value="&lt;font face=&quot;Tahoma&quot;&gt;Falso&lt;/font&gt;" style="edgeStyle=orthogonalEdgeStyle;rounded=0;orthogonalLoop=1;jettySize=auto;html=1;endArrow=block;endFill=0;endSize=8;strokeColor=#82b366;fillColor=#d5e8d4;entryX=0;entryY=0.5;entryDx=0;entryDy=0;" parent="WIyWlLk6GJQsqaUBKTNV-1" source="K-eEDzcOtVVNnCKui8ZM-1" target="K-eEDzcOtVVNnCKui8ZM-5" edge="1">
          <mxGeometry relative="1" as="geometry">
            <mxPoint x="270" y="380" as="targetPoint" />
            <Array as="points">
              <mxPoint x="220" y="380" />
            </Array>
          </mxGeometry>
        </mxCell>
        <mxCell id="K-eEDzcOtVVNnCKui8ZM-1" value="&lt;font face=&quot;Tahoma&quot;&gt;(num1 % 2) == 0&lt;/font&gt;" style="rhombus;whiteSpace=wrap;html=1;fillColor=#d5e8d4;strokeColor=#82b366;" parent="WIyWlLk6GJQsqaUBKTNV-1" vertex="1">
          <mxGeometry x="152.5" y="240" width="135" height="120" as="geometry" />
        </mxCell>
        <mxCell id="K-eEDzcOtVVNnCKui8ZM-8" style="edgeStyle=orthogonalEdgeStyle;rounded=0;orthogonalLoop=1;jettySize=auto;html=1;entryX=0;entryY=0.5;entryDx=0;entryDy=0;endArrow=block;endFill=0;endSize=8;strokeColor=#82b366;fillColor=#d5e8d4;" parent="WIyWlLk6GJQsqaUBKTNV-1" source="K-eEDzcOtVVNnCKui8ZM-3" target="K-eEDzcOtVVNnCKui8ZM-7" edge="1">
          <mxGeometry relative="1" as="geometry" />
        </mxCell>
        <mxCell id="K-eEDzcOtVVNnCKui8ZM-3" value="&lt;div&gt;&lt;font face=&quot;Tahoma&quot;&gt;Mostrar&lt;/font&gt;&lt;/div&gt;&lt;div&gt;&lt;font face=&quot;Tahoma&quot;&gt;num1 . &quot;, es par&quot;&lt;/font&gt;&lt;/div&gt;" style="shape=parallelogram;perimeter=parallelogramPerimeter;whiteSpace=wrap;html=1;strokeColor=#82b366;fillColor=#d5e8d4;" parent="WIyWlLk6GJQsqaUBKTNV-1" vertex="1">
          <mxGeometry x="360" y="280" width="170" height="40" as="geometry" />
        </mxCell>
        <mxCell id="K-eEDzcOtVVNnCKui8ZM-9" style="edgeStyle=orthogonalEdgeStyle;rounded=0;orthogonalLoop=1;jettySize=auto;html=1;entryX=0;entryY=0.5;entryDx=0;entryDy=0;endArrow=block;endFill=0;endSize=8;strokeColor=#82b366;fillColor=#d5e8d4;" parent="WIyWlLk6GJQsqaUBKTNV-1" source="K-eEDzcOtVVNnCKui8ZM-5" target="K-eEDzcOtVVNnCKui8ZM-7" edge="1">
          <mxGeometry relative="1" as="geometry" />
        </mxCell>
        <mxCell id="K-eEDzcOtVVNnCKui8ZM-5" value="&lt;div&gt;&lt;font face=&quot;Tahoma&quot;&gt;Mostrar&lt;/font&gt;&lt;/div&gt;&lt;div&gt;&lt;font face=&quot;Tahoma&quot;&gt;num1 . &quot;, no es par&quot;&lt;/font&gt;&lt;/div&gt;" style="shape=parallelogram;perimeter=parallelogramPerimeter;whiteSpace=wrap;html=1;strokeColor=#82b366;fillColor=#d5e8d4;" parent="WIyWlLk6GJQsqaUBKTNV-1" vertex="1">
          <mxGeometry x="360" y="360" width="170" height="40" as="geometry" />
        </mxCell>
        <mxCell id="K-eEDzcOtVVNnCKui8ZM-7" value="&lt;font face=&quot;Tahoma&quot;&gt;Fin&lt;/font&gt;" style="rounded=1;whiteSpace=wrap;html=1;strokeColor=#82b366;fillColor=#d5e8d4;" parent="WIyWlLk6GJQsqaUBKTNV-1" vertex="1">
          <mxGeometry x="600" y="320" width="80" height="40" as="geometry" />
        </mxCell>
        <mxCell id="K-eEDzcOtVVNnCKui8ZM-10" value="&lt;h1&gt;&lt;font face=&quot;Tahoma&quot;&gt;Ejercicio 1.&lt;br&gt;&lt;/font&gt;&lt;/h1&gt;&lt;p&gt;&lt;font face=&quot;Tahoma&quot;&gt;Dado un numero entero, indique si este es par o no.&lt;br&gt;&lt;/font&gt;&lt;/p&gt;" style="text;html=1;strokeColor=none;fillColor=none;spacing=5;spacingTop=-20;whiteSpace=wrap;overflow=hidden;rounded=0;" parent="WIyWlLk6GJQsqaUBKTNV-1" vertex="1">
          <mxGeometry x="320" y="160" width="190" height="80" as="geometry" />
        </mxCell>
      </root>
    </mxGraphModel>
  </diagram>
  <diagram id="hm6CH2XtmCASCpbpcKHV" name="Page-2">
    <mxGraphModel dx="1422" dy="780" grid="1" gridSize="10" guides="1" tooltips="1" connect="1" arrows="1" fold="1" page="1" pageScale="1" pageWidth="827" pageHeight="1169" math="0" shadow="0">
      <root>
        <mxCell id="zTdqj9yZKLDtS22mcoIz-0" />
        <mxCell id="zTdqj9yZKLDtS22mcoIz-1" parent="zTdqj9yZKLDtS22mcoIz-0" />
        <mxCell id="zTdqj9yZKLDtS22mcoIz-7" style="edgeStyle=orthogonalEdgeStyle;rounded=0;orthogonalLoop=1;jettySize=auto;html=1;entryX=0.5;entryY=0;entryDx=0;entryDy=0;endArrow=block;endFill=0;endSize=8;strokeColor=#82b366;fillColor=#d5e8d4;fontFamily=Tahoma;" parent="zTdqj9yZKLDtS22mcoIz-1" source="zTdqj9yZKLDtS22mcoIz-2" target="zTdqj9yZKLDtS22mcoIz-4" edge="1">
          <mxGeometry relative="1" as="geometry" />
        </mxCell>
        <mxCell id="zTdqj9yZKLDtS22mcoIz-2" value="Inicio" style="rounded=1;whiteSpace=wrap;html=1;strokeColor=#82b366;fillColor=#d5e8d4;fontFamily=Tahoma;" parent="zTdqj9yZKLDtS22mcoIz-1" vertex="1">
          <mxGeometry x="80" y="40" width="120" height="40" as="geometry" />
        </mxCell>
        <mxCell id="zTdqj9yZKLDtS22mcoIz-3" value="&lt;h1&gt;Ejercicio 2.&lt;br&gt;&lt;/h1&gt;&lt;p&gt;Dados 2 nÃºmeros reales. Indique cual es el mayor.&lt;/p&gt;" style="text;html=1;strokeColor=none;fillColor=none;spacing=5;spacingTop=-20;whiteSpace=wrap;overflow=hidden;rounded=0;fontFamily=Tahoma;" parent="zTdqj9yZKLDtS22mcoIz-1" vertex="1">
          <mxGeometry x="240" y="200" width="160" height="80" as="geometry" />
        </mxCell>
        <mxCell id="zTdqj9yZKLDtS22mcoIz-8" style="edgeStyle=orthogonalEdgeStyle;rounded=0;orthogonalLoop=1;jettySize=auto;html=1;entryX=0.5;entryY=0;entryDx=0;entryDy=0;endArrow=block;endFill=0;endSize=8;strokeColor=#82b366;fillColor=#d5e8d4;fontFamily=Tahoma;" parent="zTdqj9yZKLDtS22mcoIz-1" source="zTdqj9yZKLDtS22mcoIz-4" target="zTdqj9yZKLDtS22mcoIz-6" edge="1">
          <mxGeometry relative="1" as="geometry" />
        </mxCell>
        <mxCell id="zTdqj9yZKLDtS22mcoIz-4" value="&lt;div&gt;Leer num1&lt;br&gt;&lt;/div&gt;" style="shape=parallelogram;perimeter=parallelogramPerimeter;whiteSpace=wrap;html=1;rounded=0;strokeColor=#82b366;fillColor=#d5e8d4;fontFamily=Tahoma;" parent="zTdqj9yZKLDtS22mcoIz-1" vertex="1">
          <mxGeometry x="80" y="120" width="120" height="40" as="geometry" />
        </mxCell>
        <mxCell id="zTdqj9yZKLDtS22mcoIz-10" style="edgeStyle=orthogonalEdgeStyle;rounded=0;orthogonalLoop=1;jettySize=auto;html=1;entryX=0.5;entryY=0;entryDx=0;entryDy=0;endArrow=block;endFill=0;endSize=8;strokeColor=#82b366;fillColor=#d5e8d4;fontFamily=Tahoma;" parent="zTdqj9yZKLDtS22mcoIz-1" source="zTdqj9yZKLDtS22mcoIz-6" target="zTdqj9yZKLDtS22mcoIz-9" edge="1">
          <mxGeometry relative="1" as="geometry" />
        </mxCell>
        <mxCell id="zTdqj9yZKLDtS22mcoIz-6" value="&lt;div&gt;Leer num2&lt;br&gt;&lt;/div&gt;" style="shape=parallelogram;perimeter=parallelogramPerimeter;whiteSpace=wrap;html=1;rounded=0;strokeColor=#82b366;fillColor=#d5e8d4;fontFamily=Tahoma;" parent="zTdqj9yZKLDtS22mcoIz-1" vertex="1">
          <mxGeometry x="80" y="200" width="120" height="40" as="geometry" />
        </mxCell>
        <mxCell id="zTdqj9yZKLDtS22mcoIz-12" value="verdadero" style="edgeStyle=orthogonalEdgeStyle;rounded=0;orthogonalLoop=1;jettySize=auto;html=1;endArrow=block;endFill=0;endSize=8;strokeColor=#82b366;fillColor=#d5e8d4;fontFamily=Tahoma;entryX=0;entryY=0.5;entryDx=0;entryDy=0;" parent="zTdqj9yZKLDtS22mcoIz-1" source="zTdqj9yZKLDtS22mcoIz-9" target="zTdqj9yZKLDtS22mcoIz-13" edge="1">
          <mxGeometry relative="1" as="geometry">
            <mxPoint x="280" y="320" as="targetPoint" />
          </mxGeometry>
        </mxCell>
        <mxCell id="zTdqj9yZKLDtS22mcoIz-16" value="falso" style="edgeStyle=orthogonalEdgeStyle;rounded=0;orthogonalLoop=1;jettySize=auto;html=1;endArrow=block;endFill=0;endSize=8;strokeColor=#82b366;fillColor=#d5e8d4;fontFamily=Tahoma;entryX=0.5;entryY=0;entryDx=0;entryDy=0;" parent="zTdqj9yZKLDtS22mcoIz-1" source="zTdqj9yZKLDtS22mcoIz-9" target="zTdqj9yZKLDtS22mcoIz-17" edge="1">
          <mxGeometry relative="1" as="geometry">
            <mxPoint x="140" y="480" as="targetPoint" />
          </mxGeometry>
        </mxCell>
        <mxCell id="zTdqj9yZKLDtS22mcoIz-9" value="num1 == num2" style="rhombus;whiteSpace=wrap;html=1;rounded=0;strokeColor=#82b366;fillColor=#d5e8d4;fontFamily=Tahoma;" parent="zTdqj9yZKLDtS22mcoIz-1" vertex="1">
          <mxGeometry x="80" y="280" width="120" height="120" as="geometry" />
        </mxCell>
        <mxCell id="zTdqj9yZKLDtS22mcoIz-29" style="edgeStyle=orthogonalEdgeStyle;rounded=0;orthogonalLoop=1;jettySize=auto;html=1;entryX=0.5;entryY=0;entryDx=0;entryDy=0;endArrow=block;endFill=0;endSize=8;strokeColor=#82b366;fillColor=#d5e8d4;fontFamily=Tahoma;" parent="zTdqj9yZKLDtS22mcoIz-1" source="zTdqj9yZKLDtS22mcoIz-13" target="zTdqj9yZKLDtS22mcoIz-25" edge="1">
          <mxGeometry relative="1" as="geometry" />
        </mxCell>
        <mxCell id="zTdqj9yZKLDtS22mcoIz-13" value="&lt;div&gt;Mostrar&lt;/div&gt;&lt;div&gt;&quot;son iguales&quot;&lt;br&gt;&lt;/div&gt;" style="shape=parallelogram;perimeter=parallelogramPerimeter;whiteSpace=wrap;html=1;rounded=0;strokeColor=#82b366;fillColor=#d5e8d4;fontFamily=Tahoma;" parent="zTdqj9yZKLDtS22mcoIz-1" vertex="1">
          <mxGeometry x="280" y="320" width="120" height="40" as="geometry" />
        </mxCell>
        <mxCell id="zTdqj9yZKLDtS22mcoIz-20" value="verdadero" style="edgeStyle=orthogonalEdgeStyle;rounded=0;orthogonalLoop=1;jettySize=auto;html=1;endArrow=block;endFill=0;endSize=8;strokeColor=#82b366;fillColor=#d5e8d4;fontFamily=Tahoma;entryX=0;entryY=0.5;entryDx=0;entryDy=0;" parent="zTdqj9yZKLDtS22mcoIz-1" source="zTdqj9yZKLDtS22mcoIz-17" target="zTdqj9yZKLDtS22mcoIz-21" edge="1">
          <mxGeometry relative="1" as="geometry">
            <mxPoint x="280" y="540" as="targetPoint" />
          </mxGeometry>
        </mxCell>
        <mxCell id="zTdqj9yZKLDtS22mcoIz-24" value="falso" style="edgeStyle=orthogonalEdgeStyle;rounded=0;orthogonalLoop=1;jettySize=auto;html=1;entryX=0;entryY=0.5;entryDx=0;entryDy=0;endArrow=block;endFill=0;endSize=8;strokeColor=#82b366;fillColor=#d5e8d4;fontFamily=Tahoma;" parent="zTdqj9yZKLDtS22mcoIz-1" source="zTdqj9yZKLDtS22mcoIz-17" target="zTdqj9yZKLDtS22mcoIz-23" edge="1">
          <mxGeometry relative="1" as="geometry">
            <Array as="points">
              <mxPoint x="140" y="620" />
            </Array>
          </mxGeometry>
        </mxCell>
        <mxCell id="zTdqj9yZKLDtS22mcoIz-17" value="num1 &amp;gt; num2" style="rhombus;whiteSpace=wrap;html=1;rounded=0;strokeColor=#82b366;fillColor=#d5e8d4;fontFamily=Tahoma;" parent="zTdqj9yZKLDtS22mcoIz-1" vertex="1">
          <mxGeometry x="80" y="480" width="120" height="120" as="geometry" />
        </mxCell>
        <mxCell id="zTdqj9yZKLDtS22mcoIz-30" style="edgeStyle=orthogonalEdgeStyle;rounded=0;orthogonalLoop=1;jettySize=auto;html=1;entryX=0.5;entryY=1;entryDx=0;entryDy=0;endArrow=block;endFill=0;endSize=8;strokeColor=#82b366;fillColor=#d5e8d4;fontFamily=Tahoma;" parent="zTdqj9yZKLDtS22mcoIz-1" source="zTdqj9yZKLDtS22mcoIz-21" target="zTdqj9yZKLDtS22mcoIz-25" edge="1">
          <mxGeometry relative="1" as="geometry">
            <Array as="points">
              <mxPoint x="540" y="540" />
            </Array>
          </mxGeometry>
        </mxCell>
        <mxCell id="zTdqj9yZKLDtS22mcoIz-21" value="&lt;div&gt;Mostrar&lt;/div&gt;&lt;div&gt;num1 . &quot; es mayor que &quot; . num2&lt;br&gt;&lt;/div&gt;" style="shape=parallelogram;perimeter=parallelogramPerimeter;whiteSpace=wrap;html=1;rounded=0;strokeColor=#82b366;fillColor=#d5e8d4;fontFamily=Tahoma;size=0.09293704058804725;" parent="zTdqj9yZKLDtS22mcoIz-1" vertex="1">
          <mxGeometry x="280" y="520" width="230" height="40" as="geometry" />
        </mxCell>
        <mxCell id="zTdqj9yZKLDtS22mcoIz-32" style="edgeStyle=orthogonalEdgeStyle;rounded=0;orthogonalLoop=1;jettySize=auto;html=1;entryX=0.5;entryY=1;entryDx=0;entryDy=0;endArrow=block;endFill=0;endSize=8;strokeColor=#82b366;fillColor=#d5e8d4;fontFamily=Tahoma;" parent="zTdqj9yZKLDtS22mcoIz-1" source="zTdqj9yZKLDtS22mcoIz-23" target="zTdqj9yZKLDtS22mcoIz-25" edge="1">
          <mxGeometry relative="1" as="geometry">
            <Array as="points">
              <mxPoint x="540" y="620" />
            </Array>
          </mxGeometry>
        </mxCell>
        <mxCell id="zTdqj9yZKLDtS22mcoIz-23" value="&lt;div&gt;Mostrar&lt;/div&gt;&lt;div&gt;num2 . &quot; es mayor que &quot; . num1&lt;br&gt;&lt;/div&gt;" style="shape=parallelogram;perimeter=parallelogramPerimeter;whiteSpace=wrap;html=1;rounded=0;strokeColor=#82b366;fillColor=#d5e8d4;fontFamily=Tahoma;size=0.09293704058804725;" parent="zTdqj9yZKLDtS22mcoIz-1" vertex="1">
          <mxGeometry x="280" y="600" width="230" height="40" as="geometry" />
        </mxCell>
        <mxCell id="zTdqj9yZKLDtS22mcoIz-25" value="Fin" style="rounded=1;whiteSpace=wrap;html=1;strokeColor=#82b366;fillColor=#d5e8d4;fontFamily=Tahoma;" parent="zTdqj9yZKLDtS22mcoIz-1" vertex="1">
          <mxGeometry x="500" y="400" width="80" height="40" as="geometry" />
        </mxCell>
      </root>
    </mxGraphModel>
  </diagram>
  <diagram id="Yxd6msUTl_0f7reOhF3-" name="Page-3">
    <mxGraphModel dx="1422" dy="780" grid="1" gridSize="10" guides="1" tooltips="1" connect="1" arrows="1" fold="1" page="1" pageScale="1" pageWidth="827" pageHeight="1169" math="0" shadow="0">
      <root>
        <mxCell id="QIYDVEe7JDoVpmMqmg0r-0" />
        <mxCell id="QIYDVEe7JDoVpmMqmg0r-1" parent="QIYDVEe7JDoVpmMqmg0r-0" />
      </root>
    </mxGraphModel>
  </diagram>
</mxfile>
